<svg width="109" height="39" viewBox="0 0 109 39" fill="none" xmlns="http://www.w3.org/2000/svg">
<mask id="mask0_51_11" style="mask-type:luminance" maskUnits="userSpaceOnUse" x="0" y="0" width="109" height="39">
<path d="M108.675 0.300049H0V38.1H108.675V0.300049Z" fill="white"/>
</mask>
<g mask="url(#mask0_51_11)">
<path fill-rule="evenodd" clip-rule="evenodd" d="M6.13515 5.8551V11.933H9.78307V14.8085H6.13515V25.7552H2.4209V14.8085H0V11.933H2.4209V5.8551H6.13515ZM17.0458 15.1353C17.4216 14.3946 17.9522 13.7302 18.6376 13.142C19.323 12.5538 20.0249 12.1018 20.7434 11.7859C21.462 11.4701 22.0644 11.3121 22.5508 11.3121L22.385 14.9719C21.368 14.8848 20.4615 15.0645 19.6656 15.5111C18.8697 15.9577 18.2507 16.5676 17.8085 17.341C17.3663 18.1143 17.1452 18.9367 17.1452 19.8081V25.7552H13.431V11.933H16.7805L17.0458 15.1353ZM30.0788 11.933V25.7552H26.3645V11.933H30.0788ZM36.4129 15.1353H34.0252V11.9003H36.4129V6.47596C36.4129 4.53713 36.9104 3.02312 37.9053 1.93389C38.9002 0.844656 40.3261 0.300049 42.1833 0.300049C42.736 0.300049 43.3329 0.38174 43.9741 0.545124C44.6152 0.708509 45.1679 0.94269 45.6322 1.24767L44.0736 3.89449C43.6977 3.50237 43.2003 3.30631 42.5812 3.30631C40.9452 3.30631 40.1272 4.39552 40.1272 6.57399V11.9003H44.5047V15.1353H40.1272V25.7552H36.4129V15.1353ZM55.2826 22.9777C56.3218 22.9777 57.3719 22.6183 58.4331 21.8994L60.1244 24.6116C59.3727 25.069 58.5658 25.4339 57.7035 25.7062C56.8413 25.9785 56.0122 26.1147 55.2163 26.1147C53.6024 26.1147 52.204 25.7988 51.0212 25.1671C49.8384 24.5353 48.9319 23.6639 48.3018 22.5529C47.6717 21.4419 47.3567 20.1675 47.3567 18.7297C47.3567 17.3791 47.7104 16.1374 48.4179 15.0046C49.1254 13.8718 50.0871 12.9732 51.3031 12.3088C52.5191 11.6443 53.8456 11.3121 55.2826 11.3121C57.184 11.3121 58.7647 11.8622 60.0249 12.9623C61.2851 14.0624 62.1253 15.6145 62.5453 17.6187L51.7342 21.2132C52.1101 21.7796 52.6075 22.2153 53.2265 22.5202C53.8456 22.8252 54.5309 22.9777 55.2826 22.9777ZM54.9842 14.1877C53.8124 14.1877 52.8562 14.5907 52.1156 15.3967C51.3749 16.2027 51.0046 17.2484 51.0046 18.5337C51.0046 18.7733 51.0157 18.9585 51.0378 19.0892L58.4 16.5077C58.1125 15.8324 57.6925 15.2769 57.1398 14.8412C56.5871 14.4055 55.8685 14.1877 54.9842 14.1877ZM77.8003 24.4808C77.1812 24.9819 76.424 25.3795 75.5286 25.6735C74.6332 25.9676 73.7323 26.1147 72.8258 26.1147C71.2782 26.1147 69.913 25.8206 68.7302 25.2324C67.5474 24.6442 66.6354 23.8001 65.9943 22.7C65.3531 21.5998 65.0325 20.3091 65.0325 18.8278C65.0325 17.3682 65.3752 16.0884 66.0606 14.9882C66.746 13.8881 67.6579 13.044 68.7965 12.4558C69.9351 11.8676 71.1566 11.5735 72.4611 11.5735C74.6719 11.5735 76.4959 12.1617 77.9329 13.3381L76.0758 15.7235C75.6558 15.3967 75.1638 15.119 74.6001 14.8902C74.0363 14.6615 73.4338 14.5471 72.7927 14.5471C71.6651 14.5471 70.7089 14.9556 69.9241 15.7725C69.1392 16.5894 68.7468 17.6078 68.7468 18.8278C68.7468 20.0477 69.1613 21.0661 69.9904 21.883C70.8195 22.7 71.8752 23.1084 73.1575 23.1084C74.2629 23.1084 75.1915 22.8034 75.9432 22.1935L77.8003 24.4808ZM86.688 5.8551V11.933H90.3359V14.8085H86.688V25.7552H82.9737V14.8085H80.5528V11.933H82.9737V5.8551H86.688ZM108.675 11.933V25.7552H104.961V23.762C104.452 24.3501 103.767 24.8893 102.905 25.3795C102.042 25.8696 101.036 26.1147 99.8868 26.1147C98.5382 26.1147 97.3333 25.8369 96.2721 25.2814C95.2108 24.7259 94.3707 23.9036 93.7517 22.8143C93.1326 21.7251 92.8231 20.4072 92.8231 18.8604C92.8231 17.3573 93.1437 16.0339 93.7848 14.8902C94.426 13.7465 95.2827 12.8643 96.355 12.2434C97.4272 11.6225 98.6045 11.3121 99.8868 11.3121C102.164 11.3121 103.866 12.1399 104.994 13.7955L105.259 11.933H108.675ZM100.915 23.1084C101.932 23.1084 102.789 22.8525 103.485 22.3405C104.181 21.8286 104.673 21.1043 104.961 20.1675V17.1613C104.695 16.3117 104.181 15.6254 103.419 15.1026C102.656 14.5798 101.777 14.3184 100.782 14.3184C99.6105 14.3184 98.6156 14.7268 97.7976 15.5438C96.9795 16.3607 96.5705 17.4009 96.5705 18.6644C96.5705 19.4922 96.7695 20.2438 97.1674 20.9191C97.5654 21.5944 98.096 22.1281 98.7593 22.5202C99.4225 22.9124 100.141 23.1084 100.915 23.1084Z" fill="#026CFF"/>
<path d="M24.4685 5.82393C26.6027 3.99353 29.702 3.99353 31.8362 5.82393C32.0805 6.03342 32.4435 5.99936 32.6469 5.74785C32.8504 5.49634 32.8173 5.12262 32.573 4.91313C30.0119 2.71664 26.2928 2.71664 23.7317 4.91313C23.4874 5.12262 23.4543 5.49634 23.6578 5.74785C23.8612 5.99936 24.2242 6.03342 24.4685 5.82393ZM22.4144 3.70895C25.6782 0.744234 30.5747 0.744234 33.8385 3.70895C34.0769 3.9255 34.4406 3.90206 34.6509 3.6566C34.8612 3.41114 34.8385 3.03661 34.6001 2.82006C30.9012 -0.539955 25.3517 -0.539955 21.6528 2.82006C21.4144 3.03661 21.3917 3.41114 21.602 3.6566C21.8123 3.90206 22.176 3.9255 22.4144 3.70895ZM26.4596 7.96164C27.4577 7.23149 28.7952 7.23149 29.7933 7.96164C30.0525 8.15122 30.4118 8.08859 30.5959 7.82174C30.78 7.5549 30.7192 7.1849 30.4601 6.99532C29.0627 5.97311 27.1902 5.97311 25.7928 6.99532C25.5337 7.1849 25.4728 7.5549 25.657 7.82174C25.8411 8.08859 26.2004 8.15122 26.4596 7.96164Z" fill="#026CFF"/>
<path fill-rule="evenodd" clip-rule="evenodd" d="M48.8115 30.8069H50.7948L52.1337 36.0369L53.4626 30.8069H55.2646L56.6036 36.0369L57.9324 30.8069H59.8251L57.4995 38.0381H55.5968L54.3284 33.1588L53.0196 38.0381H51.127L48.8115 30.8069ZM61.3544 30.8069H63.1967V38.0381H61.3544V30.8069ZM71.8032 38.0381H69.7193L68.6925 36.0369H67.3233V38.0381H65.481V30.8069H68.6522C70.5247 30.8069 71.5918 31.7353 71.5918 33.3445C71.5918 34.438 71.1489 35.2426 70.3334 35.6758L71.8032 38.0381ZM67.3233 32.313V34.5308H68.6622C69.4072 34.5308 69.8401 34.1388 69.8401 33.4064C69.8401 32.6946 69.4072 32.313 68.6622 32.313H67.3233ZM73.6849 30.8069H79.252V32.313H75.5272V33.6643H78.8896V35.16L75.5272 35.1704V36.532H79.3527V38.0381H73.6849V30.8069ZM81.3955 30.8069H83.2378V36.4289H86.2277V38.0381H81.3955V30.8069ZM87.9785 30.8069H93.5457V32.313H89.8208V33.6643H93.1833V35.16L89.8208 35.1704V36.532H93.6463V38.0381H87.9785V30.8069ZM100.552 33.035C99.8066 32.6018 98.8603 32.2614 98.2764 32.2614C97.8334 32.2614 97.5414 32.4264 97.5414 32.7565C97.5414 33.9531 101.256 33.2723 101.256 35.8718C101.256 37.3469 99.9878 38.1 98.4173 38.1C97.2394 38.1 96.0112 37.6564 95.1656 36.9446L95.8804 35.4695C96.6052 36.1091 97.7025 36.563 98.4374 36.563C98.9811 36.563 99.3233 36.3566 99.3233 35.975C99.3233 34.7474 95.6085 35.4901 95.6085 32.9319C95.6085 31.5806 96.726 30.7244 98.4274 30.7244C99.4643 30.7244 100.511 31.0545 101.246 31.5393L100.552 33.035ZM107.97 33.035C107.225 32.6018 106.279 32.2614 105.695 32.2614C105.252 32.2614 104.96 32.4264 104.96 32.7565C104.96 33.9531 108.675 33.2723 108.675 35.8718C108.675 37.3469 107.406 38.1 105.836 38.1C104.658 38.1 103.43 37.6564 102.584 36.9446L103.299 35.4695C104.024 36.1091 105.121 36.563 105.856 36.563C106.4 36.563 106.742 36.3566 106.742 35.975C106.742 34.7474 103.027 35.4901 103.027 32.9319C103.027 31.5806 104.145 30.7244 105.846 30.7244C106.883 30.7244 107.93 31.0545 108.665 31.5393L107.97 33.035Z" fill="#026CFF"/>
</g>
</svg>
